<svg id="Layer_1" data-name="Layer 1" xmlns="http://www.w3.org/2000/svg" viewBox="361 405 1288 230"><defs><style>.cls-1{fill:#008b62;}.cls-2{fill:#25d0a0;}.cls-3{fill:#171930;}</style></defs><path class="cls-1" d="M550.79,449.07v39.52a32,32,0,0,0-29.74,8.67,32.09,32.09,0,0,0-9.39,22.7v78.26a32.11,32.11,0,0,1-32.16,32.09,31.12,31.12,0,0,1-7-.78A32.09,32.09,0,0,1,460,623.66a32.16,32.16,0,0,0,12-20,25.23,25.23,0,0,0,.52-5.48V520a70.87,70.87,0,0,1,20.87-50.35,68.28,68.28,0,0,1,18.27-13.24,69.47,69.47,0,0,1,32.08-7.7A61.71,61.71,0,0,1,550.79,449.07Z"/><path class="cls-2" d="M615,520a71.18,71.18,0,0,1-64.17,70.83V551.27a32.05,32.05,0,0,0,25-31.31Z"/><path class="cls-3" d="M745.92,490.92a49.26,49.26,0,0,0-16.09-10.87,52.12,52.12,0,0,0-20.6-4,51.51,51.51,0,0,0-20.47,4c-.34.14-.69.3-1,.44a47.72,47.72,0,0,0-15,10.44A49.81,49.81,0,0,0,662.42,507a52.14,52.14,0,0,0-3.71,19.55V603h31.47V523.8a20.18,20.18,0,0,1,3.66-11.87,14.82,14.82,0,0,1,1-1.27,18.61,18.61,0,0,1,6.37-4.47,21.58,21.58,0,0,1,16.31,0,18.44,18.44,0,0,1,6.38,4.48,20.77,20.77,0,0,1,4.23,6.92,27.29,27.29,0,0,1,0,18,20.85,20.85,0,0,1-4.23,6.93,18.55,18.55,0,0,1-6.38,4.47,20.6,20.6,0,0,1-8.15,1.59,21.46,21.46,0,0,1-6.36-.93l-2.19-.68v29.58l1.48.18a56.21,56.21,0,0,0,6.8.4,53,53,0,0,0,20.64-3.94,48.24,48.24,0,0,0,26.61-26.93,53.76,53.76,0,0,0,0-39.25A49.18,49.18,0,0,0,745.92,490.92Z"/><rect class="cls-3" x="766.91" y="471.72" width="30.67" height="128.24"/><path class="cls-3" d="M882.2,513.08a30.51,30.51,0,0,0-9.62-7.25,42.38,42.38,0,0,0-18.73-4,38.7,38.7,0,0,0-17.5,4,43.52,43.52,0,0,0-13.87,10.92,51.43,51.43,0,0,0-9.12,16.07,57.51,57.51,0,0,0-3.29,19.49,58.61,58.61,0,0,0,3.24,19.57A50.7,50.7,0,0,0,822.39,588a43.39,43.39,0,0,0,13.92,10.93A39.45,39.45,0,0,0,854,603a41.53,41.53,0,0,0,18.56-4,30.72,30.72,0,0,0,9.52-7.19V600h29.35V504.77H882.2Zm-41.73,39.28a25.7,25.7,0,0,1,1.61-9.35,20.44,20.44,0,0,1,4.38-6.88,19.37,19.37,0,0,1,6.44-4.32,20.64,20.64,0,0,1,7.86-1.51,18.41,18.41,0,0,1,7.89,1.71,20.67,20.67,0,0,1,6.43,4.67,22.29,22.29,0,0,1,4.36,7,23.37,23.37,0,0,1,1.61,8.68,24.29,24.29,0,0,1-1.57,8.79,21.76,21.76,0,0,1-4.31,7,20.16,20.16,0,0,1-6.46,4.62,19.54,19.54,0,0,1-8,1.66,22,22,0,0,1-7.73-1.39,18,18,0,0,1-6.4-4.14,20.12,20.12,0,0,1-4.41-6.88A25.85,25.85,0,0,1,840.47,552.36Z"/><path class="cls-3" d="M971.33,552.87l-.89,3.87-1-4-17.77-47.89H919.34L954,592.62l-1,2.85a29.56,29.56,0,0,1-2.17,4.78,11,11,0,0,1-2.57,3A9.81,9.81,0,0,1,944.8,605a18.88,18.88,0,0,1-5.08.6h-17v25.71h17.55a82.48,82.48,0,0,0,14.3-1.14,31.14,31.14,0,0,0,12-4.82,37.92,37.92,0,0,0,10-10.43,94,94,0,0,0,8.82-17.65l36.17-92.53-32.73.2Z"/><path class="cls-3" d="M1085.23,530.38v25.8h31.67a23.56,23.56,0,0,1-9.47,12.28c-5.19,3.43-11.73,5.17-19.45,5.17a36.93,36.93,0,0,1-13.18-2.37,31.19,31.19,0,0,1-10.81-6.9,32.93,32.93,0,0,1-7.33-11.17,40.55,40.55,0,0,1-2.71-15.27,39.52,39.52,0,0,1,2.71-15,34.23,34.23,0,0,1,7.34-11.23,31.57,31.57,0,0,1,10.82-7.07,35.82,35.82,0,0,1,13.16-2.45c7.21,0,13.49,1.59,18.66,4.72a31.67,31.67,0,0,1,12,13.14l.46.93h31.59l-.35-2a46.22,46.22,0,0,0-8.23-19.63,60.48,60.48,0,0,0-14.86-14.36,70.33,70.33,0,0,0-38.47-11.89,66.93,66.93,0,0,0-46.91,18.86,65.3,65.3,0,0,0-14.19,20.56,64.32,64.32,0,0,0,0,50.67,65.43,65.43,0,0,0,14.14,20.6,67.46,67.46,0,0,0,20.9,13.87,64.62,64.62,0,0,0,25.43,5.09,70.5,70.5,0,0,0,27.15-5,55.43,55.43,0,0,0,20.24-14.21A61.29,61.29,0,0,0,1148,561.21a91.68,91.68,0,0,0,4-29.16l0-1.67Z"/><path class="cls-3" d="M1244.21,516.65a46.76,46.76,0,0,0-15.35-10.8,49.35,49.35,0,0,0-20.18-4,51,51,0,0,0-20.34,4,48.27,48.27,0,0,0-15.89,10.88,49.46,49.46,0,0,0-10.27,16.1,53.88,53.88,0,0,0,0,39.09,48.28,48.28,0,0,0,26.2,27,50.78,50.78,0,0,0,20.3,4A49.36,49.36,0,0,0,1240,592.19a45.48,45.48,0,0,0,9.94-11,42,42,0,0,0,5.49-12.51l.52-2.09h-32.57l-.41,1.09a12.69,12.69,0,0,1-4.75,5.9c-2.27,1.59-5.65,2.4-10.07,2.4a18.56,18.56,0,0,1-12.37-4.25c-2.94-2.49-5-6.15-6.19-10.89h67.11l.19-1.48c.18-1.45.31-2.71.4-3.8s.14-2.43.14-4a53.8,53.8,0,0,0-3.43-19.16A48.42,48.42,0,0,0,1244.21,516.65ZM1193.27,535a18.62,18.62,0,0,1,4.43-4.23,17.07,17.07,0,0,1,5.24-2.38,21.93,21.93,0,0,1,12.28.27,18.31,18.31,0,0,1,5.36,2.84,15.48,15.48,0,0,1,3.8,4.24,12.55,12.55,0,0,1,1.41,3.33H1191A18.06,18.06,0,0,1,1193.27,535Z"/><polygon class="cls-3" points="1360.16 504.77 1322.72 504.77 1299.51 538.74 1299.51 471.71 1268.84 471.71 1268.84 599.96 1299.51 599.96 1299.51 573.68 1309.38 563.15 1328.43 599.96 1362.78 599.96 1331.55 542.41 1360.16 504.77"/><path class="cls-3" d="M1456.29,532.76a48.63,48.63,0,0,0-26.56-26.92,52.15,52.15,0,0,0-20.6-4,51.61,51.61,0,0,0-20.47,4,48.61,48.61,0,0,0-16,10.88,49.9,49.9,0,0,0-10.37,16.09,53.6,53.6,0,0,0,0,39.19,48.15,48.15,0,0,0,26.34,26.89,51.42,51.42,0,0,0,20.38,4,53.23,53.23,0,0,0,20.64-3.94A48.14,48.14,0,0,0,1456.29,572a53.73,53.73,0,0,0,0-39.24Zm-32.45,3.69a21,21,0,0,1,4.22,6.94,27.09,27.09,0,0,1,0,18,21,21,0,0,1-4.22,6.93,18.55,18.55,0,0,1-6.38,4.47,21.58,21.58,0,0,1-16.31,0,18.55,18.55,0,0,1-6.38-4.47,20.74,20.74,0,0,1-4.22-6.93,27.09,27.09,0,0,1,0-18,21.11,21.11,0,0,1,4.22-6.94,18.92,18.92,0,0,1,6.38-4.47,21.71,21.71,0,0,1,16.31,0A18.92,18.92,0,0,1,1423.84,536.45Z"/></svg>